<?xml version="1.0" encoding="utf-8"?>
<!-- Generator: Adobe Illustrator 18.0.0, SVG Export Plug-In . SVG Version: 6.00 Build 0)  -->
<!DOCTYPE svg PUBLIC "-//W3C//DTD SVG 1.1//EN" "http://www.w3.org/Graphics/SVG/1.1/DTD/svg11.dtd">
<svg version="1.1" xmlns="http://www.w3.org/2000/svg" xmlns:xlink="http://www.w3.org/1999/xlink" x="0px" y="0px"
	 viewBox="0 0 595.3 595.3" enable-background="new 0 0 595.3 595.3" xml:space="preserve">
<g id="Capa_1">
</g>
<g id="Capa_2">
	<path opacity="0.6" fill="#53B583" d="M295.4,565.6c-38.2,0-76.4,0.6-114.6-0.1c-83.4-1.6-150.8-68.4-152-151.9
		c-1.1-77.3-1-154.7,0-232.1C29.8,96.8,96.9,29.5,182.4,28c76.4-1.3,152.8-1.4,229.2-0.1c87.3,1.5,153.6,68.1,154.9,155.3
		c1.1,75.4,1.1,150.9,0.1,226.4c-1.2,90.2-68.7,155.5-159.5,156C369.9,565.8,332.6,565.6,295.4,565.6z"/>
	<path id="WhatsApp" fill="#FFFFFF" d="M473,291.9c0,94.3-77,170.8-172.1,170.8c-30.2,0-58.5-7.7-83.2-21.2l-95.3,30.3l31.1-91.6
		c-15.7-25.7-24.7-55.9-24.7-88.2c0-94.3,77-170.8,172.1-170.8C395.9,121.2,473,197.6,473,291.9z M300.9,148.3
		c-79.8,0-144.7,64.4-144.7,143.6c0,31.4,10.2,60.5,27.6,84.2l-18.1,53.3l55.6-17.7c22.8,15,50.2,23.7,79.6,23.7
		c79.8,0,144.7-64.4,144.7-143.6S380.7,148.3,300.9,148.3z M387.8,331.2c-1.1-1.7-3.9-2.8-8.1-4.9c-4.2-2.1-25-12.2-28.8-13.6
		c-3.9-1.4-6.7-2.1-9.5,2.1c-2.8,4.2-10.9,13.6-13.4,16.4c-2.5,2.8-4.9,3.2-9.1,1.1c-4.2-2.1-17.8-6.5-33.9-20.8
		c-12.5-11.1-21-24.8-23.5-29c-2.5-4.2-0.3-6.5,1.9-8.5c1.9-1.9,4.2-4.9,6.3-7.3c2.1-2.4,2.8-4.2,4.2-7c1.4-2.8,0.7-5.2-0.4-7.3
		c-1.1-2.1-9.5-22.7-13-31.1c-3.5-8.4-7-7-9.5-7c-2.5,0-5.3-0.4-8.1-0.4c-2.8,0-7.4,1-11.3,5.2c-3.9,4.2-14.8,14.3-14.8,34.9
		c0,20.6,15.1,40.5,17.2,43.3c2.1,2.8,29.2,46.4,72.1,63.2c42.9,16.8,42.9,11.2,50.6,10.5c7.7-0.7,25-10.1,28.5-19.9
		C388.8,341.4,388.8,333,387.8,331.2z"/>
	<path id="WhatsApp_2_" fill="#FFFFFF" d="M473,291.9c0,94.3-77,170.8-172.1,170.8c-30.2,0-58.5-7.7-83.2-21.2l-95.3,30.3l31.1-91.6
		c-15.7-25.7-24.7-55.9-24.7-88.2c0-94.3,77-170.8,172.1-170.8C395.9,121.2,473,197.6,473,291.9z M300.9,148.3
		c-79.8,0-144.7,64.4-144.7,143.6c0,31.4,10.2,60.5,27.6,84.2l-18.1,53.3l55.6-17.7c22.8,15,50.2,23.7,79.6,23.7
		c79.8,0,144.7-64.4,144.7-143.6S380.7,148.3,300.9,148.3z M387.8,331.2c-1.1-1.7-3.9-2.8-8.1-4.9c-4.2-2.1-25-12.2-28.8-13.6
		c-3.9-1.4-6.7-2.1-9.5,2.1c-2.8,4.2-10.9,13.6-13.4,16.4c-2.5,2.8-4.9,3.2-9.1,1.1c-4.2-2.1-17.8-6.5-33.9-20.8
		c-12.5-11.1-21-24.8-23.5-29c-2.5-4.2-0.3-6.5,1.9-8.5c1.9-1.9,4.2-4.9,6.3-7.3c2.1-2.4,2.8-4.2,4.2-7c1.4-2.8,0.7-5.2-0.4-7.3
		c-1.1-2.1-9.5-22.7-13-31.1c-3.5-8.4-7-7-9.5-7c-2.5,0-5.3-0.4-8.1-0.4c-2.8,0-7.4,1-11.3,5.2c-3.9,4.2-14.8,14.3-14.8,34.9
		c0,20.6,15.1,40.5,17.2,43.3c2.1,2.8,29.2,46.4,72.1,63.2c42.9,16.8,42.9,11.2,50.6,10.5c7.7-0.7,25-10.1,28.5-19.9
		C388.8,341.4,388.8,333,387.8,331.2z"/>
	<path id="WhatsApp_1_" opacity="0.6" fill="#53B583" d="M302.4,136.5c-86.3,0-156.5,69.6-156.5,155.3c0,34,11.1,65.4,29.8,91
		l-19.5,57.7l60.1-19.1c24.7,16.2,54.3,25.7,86.1,25.7c86.3,0,156.5-69.6,156.5-155.2S388.6,136.5,302.4,136.5z"/>
	<path fill="#FFFFFF" d="M387.5,329.8c-1.1-1.7-3.9-2.8-8.1-4.9c-4.2-2.1-25-12.2-28.8-13.6c-3.9-1.4-6.7-2.1-9.5,2.1
		c-2.8,4.2-10.9,13.6-13.4,16.4c-2.5,2.8-4.9,3.2-9.1,1.1c-4.2-2.1-17.8-6.5-33.9-20.8c-12.5-11.1-21-24.8-23.5-29
		c-2.5-4.2-0.3-6.5,1.9-8.5c1.9-1.9,4.2-4.9,6.3-7.3c2.1-2.4,2.8-4.2,4.2-7c1.4-2.8,0.7-5.2-0.4-7.3c-1.1-2.1-9.5-22.7-13-31.1
		c-3.5-8.4-7-7-9.5-7c-2.5,0-5.3-0.4-8.1-0.4c-2.8,0-7.4,1-11.3,5.2c-3.9,4.2-14.8,14.3-14.8,34.9c0,20.6,15.1,40.5,17.2,43.3
		c2.1,2.8,29.2,46.4,72.1,63.2c42.9,16.8,42.9,11.2,50.6,10.5c7.7-0.7,25-10.1,28.5-19.9C388.5,339.9,388.5,331.5,387.5,329.8z"/>
</g>
</svg>
